<?xml version="1.0" encoding="UTF-8"?>
<svg id="_Слой_1" data-name="Слой_1" xmlns="http://www.w3.org/2000/svg" viewBox="0 0 1451.34 1451.34">
  <defs>
    <style>
      .cls-1 {
        stroke-width: 24px;
      }

      .cls-1, .cls-2 {
        stroke: #000;
        stroke-miterlimit: 10;
      }

      .cls-1, .cls-3 {
        fill: #f49c13;
      }

      .cls-2 {
        stroke-width: 40px;
      }
    </style>
  </defs>
  <rect class="cls-3" width="1451.34" height="1451.34"/>
  <path class="cls-2" d="M727.75,995.96c14.26-.22,32.87.88,53.96,5.88,25.19,5.97,44.99,15.39,58.73,23.28,11.26,5.62,26.35,14.78,41.21,29.39,10.16,9.99,17.6,19.96,22.96,28.36h160.71l-340.32-714.41-338.97,714.41h159.36c8.15-9.99,18.4-21.15,31.06-32.41,13.41-11.93,26.41-21.21,37.81-28.36,14.47-6.25,32.13-12.63,52.67-17.56,23.02-5.52,43.73-7.82,60.83-8.58Z"/>
  <path class="cls-1" d="M725.67,554.83l141.17,341.67c-17.19-9.22-39.51-19.27-66.54-26.97-30.67-8.74-57.96-11.78-79.12-12.59-19.57.9-45.08,3.97-73.73,12.59-25.88,7.78-46.98,17.89-62.94,26.97,47.06-113.89,94.11-227.78,141.17-341.67Z"/>
</svg>